<svg xmlns="http://www.w3.org/2000/svg" width="18.769" height="23.2" viewBox="0 0 18.769 23.2">
  <g id="Group_31155" data-name="Group 31155" transform="translate(-352 -399.8)">
    <g id="Group_246" data-name="Group 246" transform="translate(352 399.8)">
      <g id="Group_245" data-name="Group 245">
        <path id="Path_375" data-name="Path 375" d="M65.971,4.034a9.367,9.367,0,0,0-15.4,0,9.369,9.369,0,0,0-1.091,8.632,7.378,7.378,0,0,0,1.36,2.245l6.814,8a.811.811,0,0,0,1.235,0l6.812-8a7.385,7.385,0,0,0,1.36-2.242A9.371,9.371,0,0,0,65.971,4.034Zm-.43,8.069a5.787,5.787,0,0,1-1.07,1.753l0,0-6.2,7.278-6.2-7.283A5.79,5.79,0,0,1,51,12.1,7.75,7.75,0,0,1,51.9,4.956a7.745,7.745,0,0,1,12.732,0A7.751,7.751,0,0,1,65.541,12.1Z" transform="translate(-48.886)"/>
      </g>
    </g>
    <g id="Group_248" data-name="Group 248" transform="translate(356.842 404.613)">
      <g id="Group_247" data-name="Group 247">
        <path id="Path_376" data-name="Path 376" d="M160.3,106.219a4.543,4.543,0,1,0,4.543,4.543A4.548,4.548,0,0,0,160.3,106.219Zm0,7.463a2.92,2.92,0,1,1,2.92-2.92A2.924,2.924,0,0,1,160.3,113.682Z" transform="translate(-155.754 -106.219)"/>
      </g>
    </g>
  </g>
</svg>
