<svg xmlns="http://www.w3.org/2000/svg" width="18.281" height="20.8" viewBox="0 0 18.281 20.8">
  <g id="Group_31153" data-name="Group 31153" transform="translate(-553 -302)">
    <g id="Group_250" data-name="Group 250" transform="translate(557.875 304.438)">
      <g id="Group_249" data-name="Group 249">
        <path id="Path_377" data-name="Path 377" d="M155.266,60a4.265,4.265,0,0,0-2.3,7.86,4.354,4.354,0,0,0,4.242.232.609.609,0,0,0-.509-1.107,3.157,3.157,0,0,1-3.075-.151,3.046,3.046,0,1,1,4.685-2.568.609.609,0,0,1-1.219.009s0-.006,0-.009a1.831,1.831,0,1,0-.609,1.361,1.827,1.827,0,0,0,3.047-1.361A4.27,4.27,0,0,0,155.266,60Zm.6,4.363a.608.608,0,1,1,0-.167A.609.609,0,0,0,155.866,64.363Z" transform="translate(-151 -60)"/>
      </g>
    </g>
    <g id="Group_252" data-name="Group 252" transform="translate(553 302)">
      <g id="Group_251" data-name="Group 251">
        <path id="Path_378" data-name="Path 378" d="M49.281,8a.613.613,0,0,0-.178-.43L46.844,5.313V.609A.609.609,0,0,0,46.234,0H34.047a.609.609,0,0,0-.609.609v4.7L31.179,7.572l-.006.007A.612.612,0,0,0,31,8h0V18.972A1.83,1.83,0,0,0,32.828,20.8H47.453a1.83,1.83,0,0,0,1.828-1.828V8Zm-2.437-.965L47.81,8l-.966.966ZM34.656,5.566h0V1.219H45.625V5.565h0v4.622l-3.3,3.3h-4.37l-3.3-3.3ZM33.437,7.037V8.969L32.471,8ZM32.219,18.719V9.474L36.841,14.1Zm.862.862,4.875-4.875h4.37L47.2,19.581Zm14.982-.862L43.44,14.1l4.623-4.623Z" transform="translate(-31)"/>
      </g>
    </g>
  </g>
</svg>
